<?xml version="1.0" encoding="UTF-8"?>
<svg width="93px" height="111px" viewBox="0 0 93 111" version="1.1" xmlns="http://www.w3.org/2000/svg" xmlns:xlink="http://www.w3.org/1999/xlink">
    <!-- Generator: Sketch 57.1 (83088) - https://sketch.com -->
    <title>favicon</title>
    <desc>Created with Sketch.</desc>
    <defs>
        <polygon id="path-1" points="0.107 0.168 97.172 0.168 97.172 99.94 0.107 99.94"></polygon>
    </defs>
    <g id="favicon" stroke="none" stroke-width="1" fill="none" fill-rule="evenodd">
        <g id="Teckro_Orange-and-Blue-Logo_RGB_V3" transform="translate(0.000000, 2.000000)">
            <g id="Group-4" transform="translate(66.000000, 27.000000)">
                <mask id="mask-2" fill="white">
                    <use xlink:href="#path-1"></use>
                </mask>
                <g id="Clip-2"></g>
                <path d="M18.3449907,54.8669302 C25.2439907,57.5159302 28.8339907,65.5789302 26.1859907,72.4779302 C23.5369907,79.3809302 15.5319907,82.8169302 8.63299068,80.1679302 C1.72999068,77.5179302 -1.76300932,69.6679302 0.886990681,62.7659302 C3.53499068,55.8659302 11.4429907,52.2169302 18.3449907,54.8669302" id="Fill-3" fill="#F07A32" mask="url(#mask-2)"></path>
            </g>
            <path d="M10.056,49.496 L3.48,49.496 C1.548,49.496 0,47.757 0,45.821 L0,32.863 C0,30.733 1.548,29.189 3.48,29.189 L10.056,29.189 L10.056,3.872 C10.056,1.936 11.796,0.196 13.731,0.196 L29.594,0 C31.525,0 33.073,1.744 33.073,3.676 L33.073,29.189 L53.942,29.189 C56.068,29.189 57.617,30.733 57.617,32.863 L57.617,45.821 C57.617,47.757 56.068,49.496 53.942,49.496 L33.073,49.496 L33.073,80.443 C33.073,85.858 35.975,86.632 39.072,86.632 C42.36,86.632 46.417,85.28 48.55,84.505 C50.676,83.732 52.22,84.698 52.803,86.632 L56.669,98.816 C57.444,100.751 56.479,102.687 54.544,103.461 C53.577,104.039 41.002,108.488 31.525,108.488 C16.633,108.488 10.056,99.203 10.056,83.536 L10.056,49.496" id="Fill-6" fill="#F07A32"></path>
        </g>
    </g>
</svg>